<svg width="100" height="29" viewBox="0 0 100 29" fill="none" xmlns="http://www.w3.org/2000/svg">
<g clip-path="url(#clip0_3327_5997)">
<path d="M96.9426 15.677C96.1931 20.0685 94.2189 24.333 91.0624 28.3938H94.4278C100.453 19.7308 101.598 10.2113 97.8327 0H94.9292C97.1067 5.4708 97.7849 10.7391 96.9422 15.677H96.9426Z" fill="white"/>
<path d="M3.05801 14.6475C3.92697 9.55434 6.44337 4.63203 10.5418 3.05176e-05H7.00792C0.173729 8.63249 -1.66881 18.1539 1.51165 28.3938H4.36145C2.75399 23.6133 2.3148 19.0021 3.05801 14.6475Z" fill="white"/>
<path d="M84.984 6.51998H84.4625C82.3175 6.51998 80.1604 7.29531 78.5518 8.61718L79.9163 0H73.0857L71.651 8.98741C69.8543 7.43126 66.8086 6.4334 63.1192 6.18345C63.1192 6.18345 61.7891 6.03692 59.8964 6.23281C59.5959 6.26925 52.7864 7.13899 52.2462 10.991C51.1958 8.11492 47.9953 6.40049 43.1773 6.40049C38.6389 6.40049 34.5993 8.28769 32.6466 11.5018C31.8286 8.53882 29.054 6.93684 24.6767 6.93684H12.3321L8.935 28.3934H15.7664L16.7498 22.1951H22.5908C27.0477 22.1951 30.1765 20.7729 31.7455 18.1425C32.7575 21.0895 35.994 22.8505 40.8528 22.8505C44.5888 22.8505 47.9695 21.5835 50.1396 19.3578C51.7321 21.4522 54.8664 22.8058 59.2316 23.1012C60.8547 23.2113 62.4312 23.1236 63.909 22.8576C63.909 22.8576 67.5322 22.291 69.8084 20.5249L69.5369 22.2248H76.3966L77.4336 15.6762C77.4755 15.4122 77.5269 15.1775 77.5888 14.9679C78.1279 12.8684 79.4756 11.8971 81.4192 12.209C82.9275 12.4511 83.5947 13.6739 83.2797 15.6382L82.8566 18.2753H82.8574L82.2423 22.2252H89.2602L90.8458 12.2415C91.4417 8.69514 88.6193 6.51959 84.9836 6.51959L84.984 6.51998ZM20.8329 16.9801H17.5847L18.3596 12.1522H21.6079C23.2768 12.1522 24.2007 12.8676 24.2007 14.1487C24.2007 15.9666 23.0085 16.9797 20.8333 16.9797L20.8329 16.9801ZM42.2997 16.9801H40.9563C39.2873 16.9801 38.3635 16.2647 38.3635 14.9836C38.3635 13.1657 39.5553 12.1526 41.7308 12.1526H43.0742C44.7432 12.1526 45.667 12.868 45.667 14.1491C45.667 15.9669 44.4748 16.9801 42.2997 16.9801ZM61.8471 18.8853C61.5305 18.9123 61.214 18.921 60.9425 18.921C60.4982 18.921 60.1746 18.8982 60.1695 18.8978C57.0689 18.711 55.2766 17.3687 54.6438 16.7932L51.0038 18.2988C52.004 16.8794 52.5756 15.1662 52.5756 13.2139C52.5756 13.1873 52.5745 13.1614 52.5745 13.1352L52.6364 13.2519C53.2949 14.4939 54.8664 15.3961 57.44 16.0104C57.541 16.0347 57.6433 16.0582 57.7467 16.0813L61.0886 16.8336C62.662 17.2136 63.6297 17.5529 63.5925 18.0688C63.5603 18.5139 62.9731 18.7885 61.8471 18.8849V18.8853ZM70.7311 15.109C70.7001 15.076 70.6786 15.0537 70.6746 15.049C69.7336 14.0163 68.0795 13.2331 65.6176 12.6537L65.5568 12.6392C65.5149 12.6294 65.4734 12.6192 65.4311 12.6098L61.9858 11.8815C60.4837 11.5242 59.677 11.2339 59.7139 10.7238L59.7146 10.7195C59.7468 10.2756 60.3336 10.0009 61.4596 9.90456C62.2937 9.83287 63.1286 9.89124 63.1372 9.89202C65.2078 10.017 66.6797 10.806 67.7312 11.4815L71.5632 9.89633L70.7311 15.1086V15.109Z" fill="white"/>
</g>
<defs>
<clipPath id="clip0_3327_5997">
<rect width="100" height="28.3938" fill="white"/>
</clipPath>
</defs>
</svg>
